<svg width="40" height="40" viewBox="0 0 40 40" fill="none" xmlns="http://www.w3.org/2000/svg">
<path d="M19.7382 14.6446C20.1145 14.7922 20.4836 14.4309 20.3589 14.0466C19.5028 11.4084 16.4031 10.4243 13.5215 12.7649C12.0058 13.9962 11.4362 14.2578 11.4219 14.2644C12.4211 15.2635 13.5627 18.616 16.054 18.9868C18.7984 19.4843 21.2273 16.7843 19.2401 15.5488C17.9332 14.7363 16.3944 14.2643 14.745 14.2643C16.4742 13.8746 18.2004 14.0417 19.7382 14.6446Z" fill="#00AAA1"/>
<path d="M32.1651 12.7647C27.1911 8.72436 24.0189 15.096 25.9907 14.4644C27.3911 14.0158 28.9221 13.9181 30.4578 14.2642C27.8559 14.2642 25.4574 15.4567 23.8582 17.3976C23.9895 14.3474 24.1882 12.4382 24.4185 11.0179C25.7476 10.9722 27.5191 9.89894 28.4919 8.02085C30.1691 5.01939 29.3913 1.9419 29.141 0C27.8305 1.27613 22.1059 -0.219158 19.8365 3.66964C18.8341 5.38747 19.1254 7.47786 20.18 9.00759C20.5138 9.49186 21.312 9.2595 21.3348 8.6718C21.4338 6.11526 22.7062 4.18371 25.0782 3.11389C24.0138 4.493 23.3149 6.03701 22.9539 7.63286C22.3927 10.1188 21.8065 11.7496 21.5913 19.673C21.5694 20.4766 22.2204 21.1417 23.0242 21.1317C23.6061 21.1243 24.1046 20.7551 24.3284 20.2179C24.6687 19.4009 25.2227 18.5553 26.1241 17.7806C26.9807 18.7274 28.2843 19.2313 29.633 18.9867C32.1137 18.6175 33.2714 15.2577 34.2651 14.2642C34.2505 14.2577 33.6808 13.9961 32.1651 12.7647Z" fill="#00AAA1"/>
<path d="M39.4774 22.6373C37.9225 21.5823 36.2301 22.3341 35.4528 22.7828L25.6993 29.9215L19.9883 29.9228L18.5606 28.495H23.8054C25.3827 28.495 27.1493 27.4676 27.1493 25.6389C27.1493 23.6975 25.3827 22.7828 23.8054 22.7828H21.8399C20.3799 22.7828 18.6736 22.913 17.4706 22.269C16.3276 21.6874 15.0114 21.3564 13.6064 21.3564C11.2472 21.3564 9.13564 22.297 7.68872 23.7802L0 31.3493L8.56642 39.9157L11.4219 35.6325H24.9154C26.3545 35.6325 27.7436 35.1046 28.8194 34.1489L39.5751 24.5942C40.173 24.0631 40.1393 23.0864 39.4774 22.6373Z" fill="#00AAA1"/>
</svg>
