<svg width="40" height="40" viewBox="0 0 40 40" fill="none" xmlns="http://www.w3.org/2000/svg">
<path d="M12.084 27.8168C11.0262 27.2101 10.3115 26.0703 10.3115 24.7656C10.3115 19.3808 14.6923 15 20.0771 15H24.1015L24.291 11.875H1.48828L3.12616 38.8989C3.1637 39.5175 3.67609 40 4.2959 40H11.4865C10.7491 39.0201 10.3115 37.8024 10.3115 36.4844C10.3115 34.9649 11.2808 33.6676 12.6333 33.1778C12.1539 32.4426 11.874 31.5662 11.874 30.625C11.874 29.6829 12.1545 28.8055 12.6348 28.0698C12.2527 27.9837 12.0406 27.8992 12.084 27.8168Z" fill="#00AAA1"/>
<path d="M12.8894 9.53156C12.8903 9.53156 12.8912 9.53125 12.8922 9.53125H24.6094C25.2567 9.53125 25.7812 9.00665 25.7812 8.35938C25.7812 7.7121 25.2567 7.1875 24.6094 7.1875H15.054L18.2129 2.34375H22.2656C22.9129 2.34375 23.4375 1.81915 23.4375 1.17188C23.4375 0.524597 22.9129 0 22.2656 0H17.5781C17.182 0 16.8127 0.19989 16.5967 0.531616L12.2559 7.1875H1.17188C0.524597 7.1875 0 7.7121 0 8.35938C0 9.00665 0.524597 9.53125 1.17188 9.53125H12.8851C12.8867 9.53125 12.8882 9.53156 12.8894 9.53156Z" fill="#00AAA1"/>
<path d="M12.6562 24.7656C12.6562 25.4129 13.1808 25.9375 13.8281 25.9375H38.8281C39.4754 25.9375 40 25.4129 40 24.7656C40 20.6732 36.6705 17.3438 32.5781 17.3438H20.0781C15.9857 17.3438 12.6562 20.6732 12.6562 24.7656Z" fill="#00AAA1"/>
<path d="M16.5625 28.2812C15.2679 28.2812 14.2188 29.3304 14.2188 30.625C14.2188 31.9196 15.2679 32.9688 16.5625 32.9688H36.0938C37.3883 32.9688 38.4375 31.9196 38.4375 30.625C38.4375 29.3304 37.3883 28.2812 36.0938 28.2812H16.5625Z" fill="#00AAA1"/>
<path d="M38.8281 35.3125H13.8281C13.1808 35.3125 12.6562 35.8371 12.6562 36.4844C12.6562 38.4229 14.2334 40 16.1719 40H36.4844C38.4229 40 40 38.4229 40 36.4844C40 35.8371 39.4754 35.3125 38.8281 35.3125Z" fill="#00AAA1"/>
</svg>
