<svg width="40" height="40" viewBox="0 0 40 40" fill="none" xmlns="http://www.w3.org/2000/svg">
<path d="M28 12H12V28H28V12Z" fill="#00AAA1"/>
<path d="M38 22C39.2 22 40 21.2 40 20C40 19 39.2 18 38 18H36V14H38C39.2 14 40 13.2 40 12C40 11 39.2 10 38 10H36V8C36 5.8 34.2 4 32 4H30V2C30 1 29.2 0 28 0C27 0 26 0.8 26 2V4H22V2C22 1 21.2 0 20 0C18.8 0 18 0.8 18 2V4H14V2C14 1 13.2 0 12 0C10.8 0 10 0.8 10 2V4H8C5.8 4 4 5.8 4 8V10H2C0.8 10 0 10.8 0 12C0 13 0.8 14 2 14H4V18H2C0.8 18 0 18.8 0 20C0 21 0.8 22 2 22H4V26H2C0.8 26 0 26.8 0 28C0 29 0.8 30 2 30H4V32C4 34.2 5.8 36 8 36H10V38C10 39 10.8 40 12 40C13.2 40 14 39.2 14 38V36H18V38C18 39 18.8 40 20 40C21.2 40 22 39.2 22 38V36H26V38C26 39 26.8 40 28 40C29 40 30 39.2 30 38V36H32C34.2 36 36 34.2 36 32V30H38C39.2 30 40 29.2 40 28C40 27 39.2 26 38 26H36V22H38V22ZM32 32H8V8H32V32Z" fill="#00AAA1"/>
</svg>
