<svg width="45" height="40" viewBox="0 0 45 40" fill="none" xmlns="http://www.w3.org/2000/svg">
<path d="M22.1523 3.67868C12.4898 -4.77261 0.203959 2.65294 0.00249822 12.7195C-0.0488408 15.2849 0.691723 17.7839 2.16584 20.0878H11.7206L13.4201 17.2552C13.9136 16.4328 15.1078 16.4064 15.6292 17.2262L19.2149 22.8608L24.4417 11.8267C24.8975 10.8639 26.256 10.8333 26.7587 11.767L31.2392 20.0878H42.1388C50.213 7.4686 34.2557 -6.9073 22.1523 3.67868Z" fill="#00AAA1"/>
<path d="M29.3207 22.0023L25.69 15.2598L20.556 26.0981C20.1193 27.0202 18.8346 27.1003 18.2868 26.2394L14.5667 20.3936L13.57 22.0548C13.3352 22.4459 12.9126 22.6852 12.4564 22.6852H4.2207C4.47887 22.9554 3.10293 21.5823 21.2369 39.6223C21.7433 40.1262 22.5621 40.1263 23.0686 39.6223C40.9235 21.8598 39.8272 22.9549 40.0848 22.6852H30.4641C29.9862 22.6853 29.5471 22.423 29.3207 22.0023Z" fill="#00AAA1"/>
</svg>
