<svg width="23" height="23" viewBox="0 0 23 23" fill="none" xmlns="http://www.w3.org/2000/svg">
<path d="M8.45929 13.7499C7.72529 13.75 7.00776 13.5324 6.39745 13.1246C5.78713 12.7169 5.31144 12.1373 5.03054 11.4592C4.74965 10.781 4.67616 10.0349 4.81937 9.31497C4.96259 8.59508 5.31607 7.93383 5.83512 7.41485L9.6645 3.58697C10.3605 2.89099 11.3044 2.5 12.2887 2.5C13.2729 2.5 14.2169 2.89099 14.9128 3.58697C15.6088 4.28294 15.9998 5.22688 15.9998 6.21114C15.9998 7.19539 15.6088 8.13933 14.9128 8.83531L14.4981 9.24929L13.4369 8.18958L13.8546 7.77184C14.2678 7.35671 14.4995 6.7947 14.4989 6.20902C14.4983 5.62333 14.2656 5.06177 13.8516 4.64743C13.4303 4.24536 12.8703 4.02102 12.2879 4.02102C11.7055 4.02102 11.1455 4.24536 10.7242 4.64743L6.89634 8.47532C6.69084 8.68058 6.52782 8.92434 6.4166 9.19265C6.30537 9.46096 6.24812 9.74857 6.24812 10.039C6.24812 10.3295 6.30537 10.6171 6.4166 10.8854C6.52782 11.1537 6.69084 11.3975 6.89634 11.6027C7.31765 12.0048 7.87765 12.2291 8.46004 12.2291C9.04242 12.2291 9.60243 12.0048 10.0237 11.6027L11.0842 12.6632C10.7402 13.0089 10.3311 13.2829 9.88058 13.4694C9.43001 13.656 8.94693 13.7513 8.45929 13.7499V13.7499Z" fill="#999999" stroke="#999999" stroke-width="0.3"/>
<path d="M14.4593 12.2499C13.7253 12.25 13.0078 12.0324 12.3974 11.6246C11.7871 11.2169 11.3114 10.6373 11.0305 9.95916C10.7496 9.28104 10.6762 8.53485 10.8194 7.81496C10.9626 7.09508 11.3161 6.43383 11.8351 5.91485L12.2499 5.50086L13.3103 6.56208L12.8963 6.97607C12.4817 7.3907 12.2488 7.95304 12.2488 8.5394C12.2488 9.12575 12.4817 9.68809 12.8963 10.1027C13.3177 10.5048 13.8777 10.7291 14.46 10.7291C15.0424 10.7291 15.6024 10.5048 16.0237 10.1027L19.8524 6.27409C20.2662 5.8592 20.4986 5.29713 20.4986 4.71114C20.4986 4.12515 20.2662 3.56307 19.8524 3.14818C19.4311 2.74611 18.8711 2.52177 18.2887 2.52177C17.7063 2.52177 17.1463 2.74611 16.725 3.14818L15.6645 2.08697C16.3605 1.39099 17.3044 1 18.2887 1C19.2729 1 20.2169 1.39099 20.9128 2.08697C21.6088 2.78294 21.9998 3.72688 21.9998 4.71114C21.9998 5.69539 21.6088 6.63933 20.9128 7.33531L17.085 11.1624C16.741 11.5082 16.3319 11.7823 15.8814 11.969C15.4308 12.1556 14.9477 12.2511 14.46 12.2499H14.4593Z" fill="#999999" stroke="#999999" stroke-width="0.3"/>
<path d="M17.4995 21.9995H2.49995C2.10226 21.9991 1.72097 21.8409 1.43976 21.5597C1.15856 21.2785 1.0004 20.8972 1 20.4995V5.49995C1.0004 5.10226 1.15856 4.72098 1.43976 4.43977C1.72097 4.15856 2.10226 4.0004 2.49995 4H5.49986V5.49995H2.49995V20.4995H17.4995V12.9997H18.9995V20.4995C18.9991 20.8972 18.8409 21.2785 18.5597 21.5597C18.2785 21.8409 17.8972 21.9991 17.4995 21.9995V21.9995Z" fill="#999999" stroke="#999999" stroke-width="0.3"/>
</svg>
