<svg width="14" height="15" viewBox="0 0 14 15" fill="none" xmlns="http://www.w3.org/2000/svg">
<path d="M6.97609 0.605469C5.34767 0.61652 3.7737 1.1911 2.52344 2.23092C1.27318 3.27075 0.424311 4.71119 0.122059 6.30584C-0.180194 7.90049 0.0829485 9.55026 0.86647 10.9729C1.64999 12.3956 2.9052 13.5027 4.41738 14.105C4.31575 13.4422 4.31575 12.7678 4.41738 12.105L5.2452 8.60516C5.11419 8.2882 5.04932 7.94796 5.05455 7.6052C5.05455 6.63524 5.62148 5.90527 6.32387 5.90527C6.45111 5.90336 6.57727 5.92888 6.69369 5.98009C6.81011 6.0313 6.91405 6.10698 6.99839 6.20195C7.08273 6.29692 7.14547 6.40893 7.18232 6.53032C7.21917 6.65171 7.22926 6.7796 7.21189 6.90523C7.21189 7.50521 6.8306 8.40517 6.62991 9.23514C6.58672 9.38992 6.58158 9.55279 6.61494 9.70997C6.6483 9.86715 6.71916 10.014 6.82154 10.1381C6.92392 10.2622 7.0548 10.3599 7.20309 10.4229C7.35138 10.4859 7.51273 10.5124 7.67346 10.5001C8.9177 10.5001 9.88098 9.18514 9.88098 7.29521C9.89349 6.91117 9.82554 6.52874 9.68146 6.17233C9.53738 5.81592 9.32034 5.49335 9.04418 5.2252C8.76802 4.95705 8.43881 4.7492 8.07755 4.61493C7.71629 4.48065 7.3309 4.42289 6.94599 4.44532C6.53504 4.42773 6.12478 4.49342 5.74004 4.63842C5.35531 4.78342 5.0041 5.00472 4.70767 5.28891C4.41124 5.5731 4.17576 5.91427 4.01548 6.29179C3.8552 6.6693 3.77346 7.0753 3.77519 7.48521C3.76961 8.05625 3.94521 8.61446 4.2769 9.08015C4.30102 9.10686 4.3182 9.13906 4.32695 9.17392C4.33569 9.20879 4.33574 9.24525 4.32707 9.28014C4.27188 9.50013 4.15147 9.98011 4.13141 10.0751C4.11134 10.1701 4.02605 10.2301 3.8956 10.1701C3.01761 9.76012 2.47075 8.48517 2.47075 7.45521C2.47075 5.25029 4.08124 3.22037 7.11155 3.22037C9.54484 3.22037 11.4413 4.9503 11.4413 7.26521C11.4413 9.67512 9.93617 11.615 7.79387 11.615C7.47981 11.6259 7.168 11.5585 6.88675 11.4188C6.6055 11.2791 6.36373 11.0715 6.18339 10.8151L5.74691 12.48C5.53767 13.1271 5.24417 13.744 4.87393 14.3149C5.55615 14.5159 6.26476 14.6136 6.97609 14.6049C8.83895 14.6049 10.6255 13.8675 11.9427 12.5548C13.26 11.2421 14 9.46165 14 7.6052C14 5.74876 13.26 3.96835 11.9427 2.65564C10.6255 1.34294 8.83895 0.605469 6.97609 0.605469Z" fill="#777777"/>
</svg>
