<svg width="14" height="15" viewBox="0 0 14 15" fill="none" xmlns="http://www.w3.org/2000/svg">
<path d="M13.9549 4.2328C13.9471 3.64399 13.8368 3.06103 13.6292 2.51001C13.4491 2.04522 13.174 1.62311 12.8215 1.27065C12.4691 0.918188 12.047 0.643123 11.5822 0.46303C11.0382 0.258843 10.4636 0.148436 9.88272 0.136509C9.13483 0.103079 8.89771 0.09375 6.99922 0.09375C5.10073 0.09375 4.8574 0.0937501 4.11495 0.136509C3.53433 0.148523 2.95996 0.25893 2.41626 0.46303C1.9514 0.642998 1.52923 0.918018 1.17675 1.2705C0.824268 1.62298 0.549247 2.04515 0.36928 2.51001C0.164684 3.05354 0.054516 3.62804 0.0435362 4.2087C0.0101066 4.95737 0 5.19448 0 7.09297C0 8.99146 -5.79232e-09 9.23402 0.0435362 9.97725C0.0551977 10.5588 0.164816 11.1325 0.36928 11.6775C0.549549 12.1422 0.824775 12.5642 1.17737 12.9165C1.52997 13.2689 1.95218 13.5438 2.41704 13.7237C2.95924 13.9361 3.53372 14.0544 4.11573 14.0735C4.86439 14.107 5.10151 14.1171 7 14.1171C8.89849 14.1171 9.14183 14.1171 9.88427 14.0735C10.4651 14.0621 11.0398 13.9519 11.5837 13.7478C12.0484 13.5675 12.4704 13.2924 12.8228 12.9399C13.1753 12.5875 13.4504 12.1655 13.6307 11.7008C13.8352 11.1566 13.9448 10.5829 13.9565 10.0006C13.9899 9.25268 14 9.01556 14 7.1163C13.9984 5.21781 13.9984 4.9768 13.9549 4.2328ZM6.99456 10.6832C5.009 10.6832 3.40049 9.07465 3.40049 7.08909C3.40049 5.10352 5.009 3.49502 6.99456 3.49502C7.94776 3.49502 8.86193 3.87368 9.53595 4.5477C10.21 5.22171 10.5886 6.13588 10.5886 7.08909C10.5886 8.04229 10.21 8.95646 9.53595 9.63048C8.86193 10.3045 7.94776 10.6832 6.99456 10.6832ZM10.7317 4.20015C10.6216 4.20025 10.5126 4.17864 10.4108 4.13656C10.3091 4.09448 10.2167 4.03275 10.1388 3.95491C10.061 3.87707 9.99927 3.78464 9.95719 3.68291C9.91511 3.58119 9.8935 3.47216 9.8936 3.36208C9.8936 3.25207 9.91527 3.14314 9.95737 3.04151C9.99946 2.93988 10.0612 2.84753 10.139 2.76974C10.2167 2.69196 10.3091 2.63025 10.4107 2.58816C10.5124 2.54606 10.6213 2.52439 10.7313 2.52439C10.8413 2.52439 10.9502 2.54606 11.0519 2.58816C11.1535 2.63025 11.2458 2.69196 11.3236 2.76974C11.4014 2.84753 11.4631 2.93988 11.5052 3.04151C11.5473 3.14314 11.569 3.25207 11.569 3.36208C11.569 3.82542 11.1942 4.20015 10.7317 4.20015Z" fill="#777777"/>
<path d="M6.99479 9.42414C8.28417 9.42414 9.32941 8.37889 9.32941 7.08951C9.32941 5.80013 8.28417 4.75488 6.99479 4.75488C5.70541 4.75488 4.66016 5.80013 4.66016 7.08951C4.66016 8.37889 5.70541 9.42414 6.99479 9.42414Z" fill="#777777"/>
</svg>
