<svg xmlns="http://www.w3.org/2000/svg" xmlns:xlink="http://www.w3.org/1999/xlink"><symbol fill="currentColor" viewBox="0 0 11 8" id="icon_arrow"><path d="M.647 3.646a.5.5 0 0 0 0 .708l3.182 3.182a.5.5 0 1 0 .707-.708L1.708 4l2.828-2.828a.5.5 0 0 0-.707-.708L.647 3.646ZM11 3.5H1v1h10v-1Z"/></symbol><symbol fill="currentColor" viewBox="0 0 23 23" id="icon_box"><path d="M8.46 13.75a3.71 3.71 0 0 1-2.625-6.335l3.83-3.828a3.711 3.711 0 1 1 5.248 5.248l-.415.414-1.061-1.06.418-.417a2.212 2.212 0 0 0-.003-3.125 2.265 2.265 0 0 0-3.128 0L6.896 8.475a2.21 2.21 0 0 0 0 3.128 2.265 2.265 0 0 0 3.128 0l1.06 1.06A3.688 3.688 0 0 1 8.46 13.75Z" stroke="#999" stroke-width=".3"/><path d="M14.46 12.25a3.71 3.71 0 0 1-2.625-6.335l.415-.414 1.06 1.061-.414.414a2.21 2.21 0 0 0 0 3.127 2.265 2.265 0 0 0 3.128 0l3.828-3.829a2.213 2.213 0 0 0 0-3.126 2.265 2.265 0 0 0-3.127 0l-1.06-1.061a3.711 3.711 0 1 1 5.248 5.248l-3.828 3.827a3.69 3.69 0 0 1-2.625 1.088Z" stroke="#999" stroke-width=".3"/><path d="M17.5 22h-15A1.502 1.502 0 0 1 1 20.5v-15A1.501 1.501 0 0 1 2.5 4h3v1.5h-3v15h15V13H19v7.5a1.502 1.502 0 0 1-1.5 1.5Z" stroke="#999" stroke-width=".3"/></symbol><symbol fill="currentColor" viewBox="0 0 22 20" id="icon_facebook02"><path d="M21.667 10.06C21.667 4.504 17.005 0 11.251 0 5.496 0 .834 4.503.834 10.06c0 5.022 3.81 9.185 8.79 9.94v-7.03H6.976v-2.91h2.646V7.845c0-2.521 1.554-3.914 3.934-3.914 1.14 0 2.332.197 2.332.197V6.6h-1.313c-1.294 0-1.698.776-1.698 1.571v1.889h2.89l-.463 2.908h-2.427V20c4.98-.755 8.79-4.918 8.79-9.94Z"/></symbol><symbol fill="currentColor" viewBox="0 0 14 15" id="icon_insta"><path d="M13.955 4.233a5.077 5.077 0 0 0-.326-1.723A3.584 3.584 0 0 0 11.582.463a5.136 5.136 0 0 0-1.7-.326C9.136.103 8.899.094 7 .094c-1.898 0-2.142 0-2.884.043a5.136 5.136 0 0 0-1.699.326A3.582 3.582 0 0 0 .37 2.51a5.095 5.095 0 0 0-.325 1.699C.01 4.957 0 5.194 0 7.093c0 1.898 0 2.141.044 2.884.011.582.12 1.155.325 1.7a3.584 3.584 0 0 0 2.048 2.047c.542.212 1.117.33 1.699.35.748.033.986.043 2.884.043s2.142 0 2.884-.044a5.124 5.124 0 0 0 1.7-.325A3.586 3.586 0 0 0 13.63 11.7a5.12 5.12 0 0 0 .325-1.7c.034-.748.044-.985.044-2.885-.002-1.898-.002-2.14-.045-2.883Zm-6.96 6.45a3.593 3.593 0 1 1-.002-7.186 3.593 3.593 0 0 1 .002 7.186ZM10.732 4.2a.838.838 0 1 1-.002-1.676.838.838 0 0 1 .002 1.676Z"/><path d="M6.995 9.424a2.335 2.335 0 1 0 0-4.67 2.335 2.335 0 0 0 0 4.67Z"/></symbol><symbol fill="currentColor" viewBox="0 0 14 15" id="icon_pinterest"><path d="M6.976.605a7.038 7.038 0 0 0-4.453 1.626 6.979 6.979 0 0 0-1.657 8.742 7.016 7.016 0 0 0 3.551 3.132 6.598 6.598 0 0 1 0-2l.828-3.5a2.517 2.517 0 0 1-.19-1c0-.97.566-1.7 1.269-1.7a.886.886 0 0 1 .858.625c.037.122.047.25.03.375 0 .6-.381 1.5-.582 2.33a.997.997 0 0 0 .573 1.188c.148.063.31.09.47.077 1.245 0 2.208-1.315 2.208-3.205a2.756 2.756 0 0 0-.837-2.07 2.776 2.776 0 0 0-2.098-.78 3.05 3.05 0 0 0-2.238.844 3.03 3.03 0 0 0-.933 2.196c-.005.571.17 1.13.502 1.595a.22.22 0 0 1 .05.2c-.055.22-.176.7-.196.795-.02.095-.105.155-.235.095-.878-.41-1.425-1.685-1.425-2.715 0-2.205 1.61-4.235 4.64-4.235 2.434 0 4.33 1.73 4.33 4.045 0 2.41-1.505 4.35-3.647 4.35a1.892 1.892 0 0 1-1.61-.8l-.437 1.665a7.76 7.76 0 0 1-.873 1.835 7.13 7.13 0 0 0 2.102.29c1.863 0 3.65-.738 4.967-2.05A6.987 6.987 0 0 0 14 7.605c0-1.856-.74-3.637-2.057-4.95A7.036 7.036 0 0 0 6.976.606Z"/></symbol><symbol fill="currentColor" viewBox="0 0 14 15" id="icon_search"><path d="M6.333 12.152c2.946 0 5.334-2.497 5.334-5.576C11.667 3.496 9.279 1 6.333 1 3.388 1 1 3.496 1 6.576c0 3.08 2.388 5.576 5.333 5.576ZM13 13.546l-2.9-3.032" stroke="#222" stroke-width="1.5" stroke-linecap="round" stroke-linejoin="round"/></symbol><symbol viewBox="0 0 512 512" xml:space="preserve" fill="currentColor" id="icon_twitter02"><path d="M256 0C114.615 0 0 114.615 0 256s114.615 256 256 256 256-114.615 256-256S397.385 0 256 0zm4.926 217.391c.084.004.164.021.25.025a51.392 51.392 0 0 1-1.328-11.682c0-28.307 22.951-51.258 51.262-51.258 14.742 0 28.063 6.225 37.414 16.188 9.6-1.89 18.684-5.174 27.129-9.523 1.781-.864 3.566-1.723 5.32-2.674-3.039 9.334-8.744 17.412-16.141 23.532-2.004 1.576-4.062 3.098-6.326 4.344.154-.018.304-.052.457-.071-.15.093-.275.22-.428.312 8.402-1.005 16.459-3.051 24.111-5.942 1.715-.592 3.428-1.191 5.127-1.852-6.842 10.159-15.453 19.095-25.375 26.259.098 2.197.148 4.406.148 6.631 0 67.736-51.558 145.842-145.844 145.842-28.947 0-55.891-8.484-78.576-23.028 4.01.473 8.092.715 12.229.715 19.136 0 37.014-5.269 52.383-14.34 3.871-2.23 7.658-4.639 11.273-7.365-.098-.002-.187-.026-.285-.028.094-.073.196-.136.289-.209-19.422-.358-36.184-11.539-44.574-27.747a50.83 50.83 0 0 1-3.164-7.831 51.27 51.27 0 0 0 9.5.898c3.391 0 6.666-.436 9.871-1.063 1.197-.168 2.406-.308 3.586-.502-.156-.032-.293-.1-.449-.133.162-.042.336-.056.496-.1-23.449-4.709-41.119-25.428-41.119-50.262 0-.196.002-.387.004-.58l.024-.055c5.521 3.064 11.693 5.092 18.23 5.94 1.609.269 3.221.516 4.832.657-.11-.074-.205-.164-.314-.238.152.006.297.036.447.041-13.754-9.191-22.803-24.883-22.803-42.666 0-8.142 1.988-15.787 5.367-22.623.539-1.028 1.018-2.078 1.637-3.074 22.711 27.822 55.516 46.971 92.801 52.15 4.16.605 8.332 1.144 12.553 1.388-.006-.024-.008-.051-.014-.076z"/></symbol><symbol fill="currentColor" viewBox="0 0 NaN NaN" id="sprite"/></svg>