<svg width="12" height="10" viewBox="0 0 12 10" fill="none" xmlns="http://www.w3.org/2000/svg">
<path d="M12 1.43915C11.5584 1.63115 11.0844 1.76315 10.5864 1.82075C11.0952 1.52075 11.484 1.04555 11.6688 0.480346C11.184 0.762906 10.6549 0.961692 10.104 1.06835C9.87225 0.825434 9.59345 0.632275 9.2846 0.500648C8.97575 0.369021 8.64333 0.301685 8.3076 0.302747C6.948 0.302747 5.8464 1.38875 5.8464 2.72675C5.8464 2.91635 5.868 3.10115 5.91 3.27875C4.93479 3.23244 3.97994 2.98336 3.10638 2.5474C2.23281 2.11145 1.45971 1.49818 0.8364 0.746747C0.617476 1.11527 0.502212 1.5361 0.5028 1.96475C0.5028 2.80475 0.9384 3.54875 1.5984 3.98195C1.20773 3.9697 0.825432 3.86569 0.4824 3.67835V3.70835C0.486107 4.2717 0.68496 4.81635 1.0451 5.24957C1.40524 5.68279 1.9044 5.97779 2.4576 6.08435C2.09443 6.18038 1.71443 6.19431 1.3452 6.12515C1.50615 6.60979 1.81401 7.03229 2.22603 7.33399C2.63805 7.6357 3.13378 7.80163 3.6444 7.80875C2.76836 8.48382 1.69277 8.84854 0.5868 8.84555C0.3888 8.84555 0.1932 8.83355 0 8.81195C1.12857 9.52629 2.43716 9.90463 3.7728 9.90275C8.3016 9.90275 10.7772 6.20915 10.7772 3.00515L10.7688 2.69075C11.2516 2.35148 11.6687 1.92741 12 1.43915Z" fill="white"/>
</svg>
