<svg width="119" height="27" viewBox="0 0 119 27" fill="none" xmlns="http://www.w3.org/2000/svg">
<rect width="70" height="27" fill="#00AAA1"/>
<path d="M21.9 24H17.607L8.481 8.88H8.373C8.427 9.69 8.472 10.563 8.508 11.499C8.562 12.417 8.598 13.344 8.616 14.28V24H5.511V4.722H9.777L18.876 19.734H18.957C18.921 19.014 18.885 18.186 18.849 17.25C18.813 16.314 18.786 15.405 18.768 14.523V4.722H21.9V24ZM40.2052 16.656C40.2052 19.086 39.5752 20.967 38.3152 22.299C37.0552 23.613 35.3452 24.27 33.1852 24.27C31.8532 24.27 30.6652 23.973 29.6212 23.379C28.5772 22.785 27.7582 21.921 27.1642 20.787C26.5702 19.653 26.2732 18.276 26.2732 16.656C26.2732 14.226 26.8942 12.363 28.1362 11.067C29.3962 9.753 31.1062 9.096 33.2662 9.096C34.6162 9.096 35.8132 9.393 36.8572 9.987C37.9012 10.563 38.7202 11.418 39.3142 12.552C39.9082 13.668 40.2052 15.036 40.2052 16.656ZM29.7562 16.656C29.7562 18.204 30.0262 19.401 30.5662 20.247C31.1242 21.093 32.0152 21.516 33.2392 21.516C34.4632 21.516 35.3452 21.093 35.8852 20.247C36.4432 19.401 36.7222 18.204 36.7222 16.656C36.7222 15.108 36.4432 13.92 35.8852 13.092C35.3452 12.264 34.4542 11.85 33.2122 11.85C32.0062 11.85 31.1242 12.264 30.5662 13.092C30.0262 13.92 29.7562 15.108 29.7562 16.656ZM49.9321 21.543C50.3461 21.543 50.7511 21.507 51.1471 21.435C51.5611 21.345 51.9391 21.246 52.2811 21.138V23.676C51.9211 23.838 51.4531 23.973 50.8771 24.081C50.3011 24.207 49.6981 24.27 49.0681 24.27C48.2401 24.27 47.4841 24.135 46.8001 23.865C46.1161 23.577 45.5761 23.091 45.1801 22.407C44.7841 21.723 44.5861 20.769 44.5861 19.545V11.931H42.6151V10.446L44.7751 9.258L45.8551 6.153H47.9881V9.366H52.1461V11.931H47.9881V19.518C47.9881 20.202 48.1681 20.715 48.5281 21.057C48.8881 21.381 49.3561 21.543 49.9321 21.543ZM61.6569 9.096C63.6189 9.096 65.1669 9.681 66.3009 10.851C67.4529 12.021 68.0289 13.65 68.0289 15.738V17.466H58.3629C58.3989 18.798 58.7679 19.833 59.4699 20.571C60.1719 21.291 61.1439 21.651 62.3859 21.651C63.3219 21.651 64.1679 21.561 64.9239 21.381C65.6799 21.183 66.4539 20.904 67.2459 20.544V23.271C66.5259 23.613 65.7789 23.865 65.0049 24.027C64.2309 24.189 63.3039 24.27 62.2239 24.27C60.8019 24.27 59.5329 24 58.4169 23.46C57.3189 22.902 56.4549 22.065 55.8249 20.949C55.2129 19.833 54.9069 18.447 54.9069 16.791C54.9069 14.289 55.5279 12.381 56.7699 11.067C58.0119 9.753 59.6409 9.096 61.6569 9.096ZM61.6569 11.607C60.7389 11.607 59.9919 11.904 59.4159 12.498C58.8579 13.074 58.5339 13.938 58.4439 15.09H64.7349C64.7169 14.082 64.4559 13.254 63.9519 12.606C63.4659 11.94 62.7009 11.607 61.6569 11.607Z" fill="white"/>
<path d="M77.236 12.862C78.29 12.862 79.174 12.964 79.888 13.168C80.602 13.3607 81.1347 13.678 81.486 14.12C81.8487 14.562 82.03 15.157 82.03 15.905C82.03 16.3697 81.9507 16.789 81.792 17.163C81.6333 17.537 81.401 17.843 81.095 18.081C80.8003 18.319 80.432 18.4777 79.99 18.557V18.642C80.4433 18.7213 80.8457 18.8687 81.197 19.084C81.5597 19.288 81.843 19.5883 82.047 19.985C82.2623 20.3703 82.37 20.8803 82.37 21.515C82.37 22.2517 82.1943 22.8807 81.843 23.402C81.4917 23.9233 80.9873 24.32 80.33 24.592C79.684 24.864 78.9133 25 78.018 25H73.581V12.862H77.236ZM77.525 17.809C78.3863 17.809 78.9757 17.673 79.293 17.401C79.6217 17.129 79.786 16.7267 79.786 16.194C79.786 15.65 79.5933 15.259 79.208 15.021C78.8227 14.783 78.205 14.664 77.355 14.664H75.757V17.809H77.525ZM75.757 19.56V23.181H77.729C78.613 23.181 79.225 23.011 79.565 22.671C79.9163 22.331 80.092 21.8777 80.092 21.311C80.092 20.9483 80.0183 20.6367 79.871 20.376C79.7237 20.1153 79.4687 19.917 79.106 19.781C78.7433 19.6337 78.2503 19.56 77.627 19.56H75.757ZM92.8941 20.376C92.8941 21.1467 92.7921 21.8267 92.5881 22.416C92.3841 23.0053 92.0894 23.5097 91.7041 23.929C91.3301 24.337 90.8654 24.6487 90.3101 24.864C89.7661 25.068 89.1597 25.17 88.4911 25.17C87.8564 25.17 87.2727 25.068 86.7401 24.864C86.2074 24.6487 85.7427 24.337 85.3461 23.929C84.9607 23.5097 84.6604 23.0053 84.4451 22.416C84.2297 21.8267 84.1221 21.1467 84.1221 20.376C84.1221 19.356 84.2977 18.4947 84.6491 17.792C85.0004 17.078 85.5047 16.5397 86.1621 16.177C86.8307 15.803 87.6184 15.616 88.5251 15.616C89.3864 15.616 90.1401 15.803 90.7861 16.177C91.4434 16.5397 91.9591 17.078 92.3331 17.792C92.7071 18.4947 92.8941 19.356 92.8941 20.376ZM86.3151 20.376C86.3151 21.022 86.3887 21.5773 86.5361 22.042C86.6947 22.4953 86.9327 22.841 87.2501 23.079C87.5787 23.317 87.9981 23.436 88.5081 23.436C89.0294 23.436 89.4487 23.317 89.7661 23.079C90.0947 22.841 90.3327 22.4953 90.4801 22.042C90.6274 21.5773 90.7011 21.022 90.7011 20.376C90.7011 19.7187 90.6217 19.169 90.4631 18.727C90.3157 18.2737 90.0777 17.9337 89.7491 17.707C89.4317 17.469 89.0181 17.35 88.5081 17.35C87.7374 17.35 87.1764 17.6107 86.8251 18.132C86.4851 18.6533 86.3151 19.4013 86.3151 20.376ZM103.336 20.376C103.336 21.1467 103.234 21.8267 103.03 22.416C102.826 23.0053 102.532 23.5097 102.146 23.929C101.772 24.337 101.308 24.6487 100.752 24.864C100.208 25.068 99.6021 25.17 98.9334 25.17C98.2988 25.17 97.7151 25.068 97.1824 24.864C96.6498 24.6487 96.1851 24.337 95.7884 23.929C95.4031 23.5097 95.1028 23.0053 94.8874 22.416C94.6721 21.8267 94.5644 21.1467 94.5644 20.376C94.5644 19.356 94.7401 18.4947 95.0914 17.792C95.4428 17.078 95.9471 16.5397 96.6044 16.177C97.2731 15.803 98.0608 15.616 98.9674 15.616C99.8288 15.616 100.582 15.803 101.228 16.177C101.886 16.5397 102.401 17.078 102.775 17.792C103.149 18.4947 103.336 19.356 103.336 20.376ZM96.7574 20.376C96.7574 21.022 96.8311 21.5773 96.9784 22.042C97.1371 22.4953 97.3751 22.841 97.6924 23.079C98.0211 23.317 98.4404 23.436 98.9504 23.436C99.4718 23.436 99.8911 23.317 100.208 23.079C100.537 22.841 100.775 22.4953 100.922 22.042C101.07 21.5773 101.143 21.022 101.143 20.376C101.143 19.7187 101.064 19.169 100.905 18.727C100.758 18.2737 100.52 17.9337 100.191 17.707C99.8741 17.469 99.4604 17.35 98.9504 17.35C98.1798 17.35 97.6188 17.6107 97.2674 18.132C96.9274 18.6533 96.7574 19.4013 96.7574 20.376ZM107.676 18.217C107.676 18.5117 107.664 18.8233 107.642 19.152C107.619 19.4693 107.596 19.781 107.574 20.087H107.625C107.715 19.951 107.823 19.8037 107.948 19.645C108.072 19.475 108.197 19.3107 108.322 19.152C108.458 18.982 108.588 18.829 108.713 18.693L111.433 15.786H113.864L110.175 19.764L114.102 25H111.603L108.747 21.056L107.676 21.94V25H105.551V12.08H107.676V18.217Z" fill="#222222"/>
<mask id="mask0_131_7446" style="mask-type:alpha" maskUnits="userSpaceOnUse" x="115" y="21" width="4" height="4">
<circle cx="117" cy="23" r="2" fill="white"/>
</mask>
<g mask="url(#mask0_131_7446)">
<rect x="115" y="21" width="2" height="4" fill="#00AAA1"/>
</g>
<mask id="mask1_131_7446" style="mask-type:alpha" maskUnits="userSpaceOnUse" x="115" y="21" width="4" height="4">
<circle cx="117" cy="23" r="2" transform="rotate(-180 117 23)" fill="#222222"/>
</mask>
<g mask="url(#mask1_131_7446)">
<rect x="119" y="25" width="2" height="4" transform="rotate(-180 119 25)" fill="#00AAA1"/>
</g>
</svg>
