<svg width="18" height="19" viewBox="0 0 18 19" fill="none" xmlns="http://www.w3.org/2000/svg">
<path d="M13.9993 4.30355e-08C14.5827 -5.74862e-05 15.1568 0.145612 15.6696 0.42378C16.1824 0.701948 16.6175 1.1038 16.9355 1.59285C17.2535 2.08189 17.4444 2.64263 17.4907 3.22415C17.5369 3.80566 17.4372 4.38953 17.2006 4.92272C16.9639 5.45592 16.5978 5.92154 16.1355 6.27732C15.6732 6.63309 15.1293 6.86775 14.5533 6.95997C13.9773 7.05218 13.3874 6.99905 12.8371 6.80538C12.2868 6.61172 11.7936 6.28366 11.4023 5.851L6.84435 8.455C7.05783 9.13634 7.05783 9.86666 6.84435 10.548L11.4013 13.154C11.9807 12.5138 12.7763 12.1102 13.6351 12.0207C14.4939 11.9313 15.3555 12.1623 16.0544 12.6693C16.7533 13.1764 17.2403 13.9238 17.4217 14.768C17.6032 15.6122 17.4663 16.4937 17.0375 17.2431C16.6086 17.9926 15.918 18.5572 15.0983 18.8285C14.2786 19.0998 13.3875 19.0587 12.5962 18.7131C11.8049 18.3675 11.1692 17.7417 10.8111 16.956C10.4531 16.1702 10.398 15.2799 10.6563 14.456L6.09935 11.849C5.62472 12.3738 5.00224 12.7425 4.31392 12.9066C3.6256 13.0706 2.90373 13.0223 2.24341 12.768C1.58309 12.5137 1.01529 12.0653 0.614822 11.482C0.214354 10.8986 0 10.2076 0 9.5C0 8.7924 0.214354 8.1014 0.614822 7.51803C1.01529 6.93466 1.58309 6.48629 2.24341 6.23198C2.90373 5.97768 3.6256 5.92937 4.31392 6.09342C5.00224 6.25747 5.62472 6.62619 6.09935 7.151L10.6563 4.547C10.4924 4.02263 10.4541 3.46704 10.5446 2.92515C10.6351 2.38325 10.8519 1.87025 11.1773 1.4276C11.5027 0.984959 11.9277 0.625093 12.418 0.377093C12.9082 0.129092 13.4499 -8.60801e-05 13.9993 4.30355e-08ZM13.9993 13.5C13.4684 13.5 12.9592 13.7109 12.5837 14.0864C12.2083 14.4618 11.9973 14.971 11.9973 15.502C11.9973 16.033 12.2083 16.5422 12.5837 16.9176C12.9592 17.2931 13.4684 17.504 13.9993 17.504C14.5303 17.504 15.0395 17.2931 15.415 16.9176C15.7904 16.5422 16.0013 16.033 16.0013 15.502C16.0013 14.971 15.7904 14.4618 15.415 14.0864C15.0395 13.7109 14.5303 13.5 13.9993 13.5ZM3.50135 7.5C2.97038 7.5 2.46117 7.71092 2.08572 8.08637C1.71027 8.46182 1.49935 8.97104 1.49935 9.502C1.49935 10.033 1.71027 10.5422 2.08572 10.9176C2.46117 11.2931 2.97038 11.504 3.50135 11.504C4.03231 11.504 4.54153 11.2931 4.91697 10.9176C5.29242 10.5422 5.50335 10.033 5.50335 9.502C5.50335 8.97104 5.29242 8.46182 4.91697 8.08637C4.54153 7.71092 4.03231 7.5 3.50135 7.5ZM13.9993 1.5C13.4684 1.5 12.9592 1.71092 12.5837 2.08637C12.2083 2.46182 11.9973 2.97104 11.9973 3.502C11.9973 4.03296 12.2083 4.54218 12.5837 4.91763C12.9592 5.29308 13.4684 5.504 13.9993 5.504C14.5303 5.504 15.0395 5.29308 15.415 4.91763C15.7904 4.54218 16.0013 4.03296 16.0013 3.502C16.0013 2.97104 15.7904 2.46182 15.415 2.08637C15.0395 1.71092 14.5303 1.5 13.9993 1.5Z" fill="black"/>
</svg>
