<svg width="38" height="40" viewBox="0 0 38 40" fill="none" xmlns="http://www.w3.org/2000/svg">
<path d="M25.3522 4.38312V0H23.0048V5.04218C21.4907 5.70593 20.1714 6.79311 19.227 8.20967L18.7014 8.99811L18.1758 8.20967C17.2315 6.79319 15.9121 5.70593 14.398 5.04218V0H12.0506V4.38312C11.6643 4.33101 11.2726 4.30343 10.877 4.30343V9.46756C10.877 12.0604 12.9788 14.1622 15.5716 14.1622H21.8312C24.424 14.1622 26.5258 12.0604 26.5258 9.46756V4.30343C26.1303 4.30343 25.7385 4.33101 25.3522 4.38312Z" fill="#00AAA1"/>
<path d="M24.1775 16.5098H13.2233L0 37.1663V37.2446C12.1961 40.9188 25.2046 40.9188 37.4008 37.2446V37.1663L24.1775 16.5098Z" fill="#00AAA1"/>
</svg>
