<svg width="40" height="34" viewBox="0 0 40 34" fill="none" xmlns="http://www.w3.org/2000/svg">
<path d="M36.6283 6.25648H31.3168L30.3536 3.05761C29.9247 1.63317 28.6128 0.658203 27.1251 0.658203H19.9854C18.4977 0.658203 17.1859 1.63317 16.7569 3.05761L15.7936 6.25655H3.37169C1.50954 6.25648 0 7.76602 0 9.62804V29.9703C0 31.8324 1.50954 33.3419 3.37169 33.3419H36.6283C38.4905 33.3419 40 31.8324 40 29.9703V9.62804C39.9999 7.76602 38.4903 6.25648 36.6283 6.25648ZM23.5318 28.6135C18.5663 28.6135 14.5408 24.588 14.5408 19.6225C14.5408 14.6569 18.5663 10.6314 23.5318 10.6314C28.4974 10.6314 32.523 14.6569 32.523 19.6225C32.523 24.588 28.4974 28.6135 23.5318 28.6135Z" fill="#00AAA1"/>
<path d="M23.5314 14.0029C20.428 14.0029 17.9121 16.5189 17.9121 19.6223C17.9121 22.7256 20.428 25.2417 23.5314 25.2417C26.6348 25.2417 29.1509 22.7256 29.1509 19.6223C29.1509 16.5189 26.6349 14.0029 23.5314 14.0029ZM27.445 19.4027C26.9157 19.9321 25.5969 19.4715 24.4993 18.374C23.4019 17.2764 22.9414 15.9577 23.4708 15.4283C24.0001 14.899 25.3189 15.3595 26.4163 16.457C27.5138 17.5545 27.9744 18.8733 27.445 19.4027Z" fill="#00AAA1"/>
<path d="M11.0428 4.4866C11.0428 3.66438 10.3763 2.99805 9.55426 2.99805H6.35002C5.52793 2.99805 4.86133 3.66452 4.86133 4.4866V5.23739H11.0427V4.4866H11.0428Z" fill="#00AAA1"/>
</svg>
